<svg xmlns="http://www.w3.org/2000/svg" width="110" height="28" viewBox="0 0 110 28">
  <defs>
    <style>
      .cls-1 {
        fill-rule: evenodd;
      }
    </style>
  </defs>
  <path id="SiteLogo" class="cls-1" d="M8.08,18.486a1.268,1.268,0,0,0-.064.4,1.792,1.792,0,0,0,.182.8,2.523,2.523,0,0,0,.486.674,3.578,3.578,0,0,0,.709.545,4.68,4.68,0,0,0,.861.4,5.982,5.982,0,0,0,.926.24,5.315,5.315,0,0,0,.914.082,6.494,6.494,0,0,0,2.01-.316,8.6,8.6,0,0,0,1.857-.856A10.394,10.394,0,0,0,17.619,19.2a12.8,12.8,0,0,0,1.412-1.547q0.352-.457.668-0.932a9.293,9.293,0,0,0,.563-0.961,5.657,5.657,0,0,0,.387-0.967,3.366,3.366,0,0,0,.141-0.949,2.872,2.872,0,0,0-.311-1.354,2.994,2.994,0,0,0-.826-0.99,3.688,3.688,0,0,0-1.183-.6,4.73,4.73,0,0,0-1.395-.205q-0.3,0-.7.018l-0.809.035q-0.416.018-.815,0.029t-0.715.012a1.63,1.63,0,0,1-.914-0.246,0.771,0.771,0,0,1-.375-0.68A1.525,1.525,0,0,1,12.9,9.234a2.332,2.332,0,0,1,.463-0.656q0.6-.621,1.353-1.277a12.928,12.928,0,0,1,1.606-1.189,10.159,10.159,0,0,1,1.746-.879,4.881,4.881,0,0,1,1.764-.346,1.819,1.819,0,0,1,.539.076q0.246,0.076.492,0.164t0.51,0.158a2.249,2.249,0,0,0,.58.07,0.583,0.583,0,0,0,.229-0.047,0.548,0.548,0,0,0,.205-0.158,0.868,0.868,0,0,0,.152-0.287,1.387,1.387,0,0,0,.059-0.434,1.634,1.634,0,0,0-.188-0.791,1.731,1.731,0,0,0-.51-0.58A2.394,2.394,0,0,0,21.152,2.7a3.165,3.165,0,0,0-.891-0.123,7.659,7.659,0,0,0-1.588.17,6.866,6.866,0,0,0-1.576.545q-0.551.27-1.189,0.65t-1.3.855q-0.662.475-1.289,1.014a14.328,14.328,0,0,0-1.16,1.113A8.037,8.037,0,0,0,11.244,8.1,4.526,4.526,0,0,0,10.7,9.293q-0.059.235-.1,0.486a3.3,3.3,0,0,0-.041.533,1.876,1.876,0,0,0,.059.48,2.777,2.777,0,0,0,.129.387,2.741,2.741,0,0,0,.563.844,2.833,2.833,0,0,0,.738.539,3.371,3.371,0,0,0,.814.287,3.88,3.88,0,0,0,.8.088q0.258,0,.609-0.012T15,12.9l0.738-.035q0.363-.018.633-0.018a5.837,5.837,0,0,1,.879.064,3.185,3.185,0,0,1,.756.205,1.5,1.5,0,0,1,.533.357,0.73,0.73,0,0,1,.2.51,1.511,1.511,0,0,1-.094.475,3.959,3.959,0,0,1-.311.656,9.741,9.741,0,0,1-.568.867q-0.352.486-.879,1.084a6.468,6.468,0,0,1-1.055.99,7.173,7.173,0,0,1-1.2.727,6.275,6.275,0,0,1-1.283.451,5.738,5.738,0,0,1-1.3.152,4.411,4.411,0,0,1-1.037-.117,7.563,7.563,0,0,1-.932-0.287q-0.445-.17-0.861-0.357T8.4,18.293A0.3,0.3,0,0,0,8.08,18.486Zm14.537,1.74a0.285,0.285,0,0,0-.023.105v0.105a1.218,1.218,0,0,0,.082.422,1.3,1.3,0,0,0,.246.41,1.368,1.368,0,0,0,.4.311,1.143,1.143,0,0,0,.539.123,0.537,0.537,0,0,0,.281-0.07,0.72,0.72,0,0,0,.2-0.176,1.032,1.032,0,0,0,.129-0.211q0.047-.105.07-0.176,0.539-2.109,1.107-4.207t1.119-4.184l0.328-1.242a0.245,0.245,0,0,0,.012-0.076V11.285a0.556,0.556,0,0,0-.088-0.311,0.662,0.662,0,0,0-.234-0.217,1.216,1.216,0,0,0-.334-0.123,1.807,1.807,0,0,0-.387-0.041,1.227,1.227,0,0,0-.469.082,1.194,1.194,0,0,0-.328.193,1.027,1.027,0,0,0-.2.223,0.672,0.672,0,0,0-.082.158q-0.246,1-.527,2.051T23.9,15.363l-0.521,1.91q-0.246.9-.422,1.582ZM25.975,6.92a1.329,1.329,0,0,0-.018.229,1,1,0,0,0,.018.17,0.755,0.755,0,0,0,.146.275,1.63,1.63,0,0,0,.369.4,0.771,0.771,0,0,0,.416.094A1.789,1.789,0,0,0,27.4,8a2.5,2.5,0,0,0,.539-0.229,2.033,2.033,0,0,0,.457-0.352,1.064,1.064,0,0,0,.27-0.451q0.023-.094.059-0.246a1.515,1.515,0,0,0,.035-0.34,1.041,1.041,0,0,0-.088-0.445,0.417,0.417,0,0,0-.381-0.211,2.42,2.42,0,0,0-.223-0.258A1.429,1.429,0,0,0,27.85,5.3a0.434,0.434,0,0,0-.24-0.082,1.452,1.452,0,0,0-.387.088,2.543,2.543,0,0,0-.457.193,1.564,1.564,0,0,0-.539.633,3.716,3.716,0,0,0-.211.6Q25.992,6.82,25.975,6.92Zm4.963,11.795a3.294,3.294,0,0,0,.615,1.107,2.891,2.891,0,0,0,1,.75,3.173,3.173,0,0,0,1.353.275,5.2,5.2,0,0,0,1.02-.105,2.854,2.854,0,0,0,.973-0.387q0.258-.164.551-0.369t0.563-.434a5.783,5.783,0,0,0,.5-0.475,2.512,2.512,0,0,0,.369-0.5q0.41-.738.8-1.471a6.557,6.557,0,0,0,.58-1.459A0.63,0.63,0,0,0,39.27,15.5a0.385,0.385,0,0,0-.064-0.223,0.54,0.54,0,0,0-.158-0.152,0.646,0.646,0,0,0-.193-0.082,0.764,0.764,0,0,0-.17-0.024,0.422,0.422,0,0,0-.363.211q-0.41.563-.9,1.184a10.734,10.734,0,0,1-1.031,1.143,5.8,5.8,0,0,1-1.143.861,2.437,2.437,0,0,1-1.219.34,1.317,1.317,0,0,1-.6-0.123,0.99,0.99,0,0,1-.381-0.334,1.385,1.385,0,0,1-.2-0.5,3,3,0,0,1-.059-0.6,6.125,6.125,0,0,1,.053-0.685q0.053-.44.164-1t0.275-1.2q0.164-.644.387-1.312a2.1,2.1,0,0,0,.275-0.023q0.17-.023.439-0.07t0.65-.141q0.381-.094.92-0.234,0.363-.094.75-0.187t0.744-.176l0.656-.152q0.3-.07.486-0.105a2.193,2.193,0,0,0,.445-0.146,1.519,1.519,0,0,0,.4-0.258,1.3,1.3,0,0,0,.287-0.375,1.075,1.075,0,0,0,.111-0.5,0.566,0.566,0,0,0-.094-0.34,0.629,0.629,0,0,0-.24-0.2,1.2,1.2,0,0,0-.34-0.1,2.551,2.551,0,0,0-.381-0.029,1.609,1.609,0,0,0-.322.041q-0.193.041-.475,0.105l-0.674.158q-0.393.094-.932,0.2l-0.984.188q-0.492.094-1.125,0.2l0.855-3.281a2.181,2.181,0,0,0,.059-0.527,2.132,2.132,0,0,0-.07-0.539,1.576,1.576,0,0,0-.211-0.48,1.083,1.083,0,0,0-.363-0.34A1.06,1.06,0,0,0,34,5.566a0.721,0.721,0,0,0-.551.2,1.1,1.1,0,0,0-.258.422,2.337,2.337,0,0,0-.111.434,2.255,2.255,0,0,0-.018.246V6.984q0,0.246.012,0.387t0.012,0.293a1.545,1.545,0,0,1-.053.346q-0.053.217-.146,0.563l-0.229.844q-0.135.5-.287,1.178a2.6,2.6,0,0,1-.129.381,0.3,0.3,0,0,1-.3.193h-1.57a0.5,0.5,0,0,0-.316.111,0.9,0.9,0,0,0-.229.27,1.521,1.521,0,0,0-.135.322,1.024,1.024,0,0,0-.047.269,0.737,0.737,0,0,0,.164.475,1.37,1.37,0,0,0,.422.346,2.5,2.5,0,0,0,.574.223,2.9,2.9,0,0,0,.621.094q-0.246.973-.469,2.033a9.946,9.946,0,0,0-.223,2.045A4.272,4.272,0,0,0,30.938,18.715ZM41.69,16.869a0.516,0.516,0,0,0,.287.158,5.669,5.669,0,0,0-.152,1.23,3.108,3.108,0,0,0,.193,1.16,2.469,2.469,0,0,0,1.213,1.336,4.062,4.062,0,0,0,.809.3,5.032,5.032,0,0,0,.791.141q0.381,0.035.662,0.035a8.938,8.938,0,0,0,2.736-.41,7.972,7.972,0,0,0,2.5-1.371,1.926,1.926,0,0,0,.445-0.527,1.962,1.962,0,0,0,.234-0.609,1.22,1.22,0,0,0,.017-0.147c0-.059.006-0.119,0.006-0.182a0.629,0.629,0,0,0-.082-0.311,0.4,0.4,0,0,0-.375-0.147,1.526,1.526,0,0,0-.674.193,7.923,7.923,0,0,0-.8.475q-0.328.223-.727,0.451a8.207,8.207,0,0,1-.85.422,6.1,6.1,0,0,1-.955.316,4.434,4.434,0,0,1-1.055.123,2.572,2.572,0,0,1-1.488-.375,1.211,1.211,0,0,1-.539-1.055,2.716,2.716,0,0,1,.076-0.627,2.48,2.48,0,0,1,.182-0.533q0.48-.047,1.137-0.135t1.365-.252a13.846,13.846,0,0,0,1.418-.41,6.755,6.755,0,0,0,1.313-.615,4.739,4.739,0,0,0,1.049-.861,2.64,2.64,0,0,0,.609-1.148,2.718,2.718,0,0,0,.105-0.762,2.3,2.3,0,0,0-.164-0.873,1.865,1.865,0,0,0-.492-0.7,2.3,2.3,0,0,0-.832-0.457,3.836,3.836,0,0,0-1.183-.164,4.2,4.2,0,0,0-1.506.269,6.123,6.123,0,0,0-1.324.7,7.788,7.788,0,0,0-1.125.949,11.877,11.877,0,0,0-.908,1.037,10.912,10.912,0,0,0-.668.955q-0.27.439-.4,0.7a1.286,1.286,0,0,0-.715.469,1.364,1.364,0,0,0-.27.856A0.531,0.531,0,0,0,41.69,16.869Zm6.785-3a3.2,3.2,0,0,1-.844.539,6.171,6.171,0,0,1-1.225.4,11.364,11.364,0,0,1-1.547.229,5.925,5.925,0,0,1,.527-0.838,6.007,6.007,0,0,1,.779-0.867,4.662,4.662,0,0,1,.938-0.674,2.108,2.108,0,0,1,1.014-.27,0.983,0.983,0,0,1,.563.158,0.535,0.535,0,0,1,.234.475v0.105a0.288,0.288,0,0,1-.023.105A1.381,1.381,0,0,1,48.475,13.869Zm5.959,3.076a4.135,4.135,0,0,0-.129.457q-0.059.258-.105,0.527t-0.076.516a3.727,3.727,0,0,0-.029.434,1.9,1.9,0,0,0,.129.7,1.035,1.035,0,0,0,.433.516,4.49,4.49,0,0,1,.545.387,3.22,3.22,0,0,0,.4.3,1.745,1.745,0,0,0,.451.193,2.714,2.714,0,0,0,.7.07,3.622,3.622,0,0,0,.908-0.146q0.545-.146,1.154-0.357t1.225-.445q0.615-.234,1.119-0.422,0.105-.035.369-0.135l0.6-.229,0.727-.275q0.387-.146.75-0.287t0.674-.258l0.5-.187q0.152-.047.387-0.141a4.393,4.393,0,0,0,.48-0.229,3.06,3.06,0,0,0,.469-0.316,1.682,1.682,0,0,0,.363-0.4,2.491,2.491,0,0,0,.088-0.322,2.2,2.2,0,0,0,.041-0.451,1.349,1.349,0,0,0-.035-0.3,0.837,0.837,0,0,0-.111-0.27,0.55,0.55,0,0,0-.211-0.187,0.689,0.689,0,0,0-.322-0.07,0.727,0.727,0,0,0-.228.041q-0.123.041-.287,0.1-0.949.4-1.488,0.621l-0.861.357q-0.323.135-.539,0.229L62,17.18q-0.574.246-1.26,0.521t-1.377.5q-0.692.228-1.336,0.387a4.806,4.806,0,0,1-1.125.158,0.294,0.294,0,0,1-.27-0.111,0.554,0.554,0,0,1-.07-0.3,4.487,4.487,0,0,1,.117-0.891q0.117-.551.281-1.16l0.211-.8q0.3-1.137.691-2.32t0.779-2.361q0.392-1.178.768-2.326t0.645-2.227q0.035-.152.059-0.316a2.583,2.583,0,0,0,.023-0.363,2.455,2.455,0,0,0-.059-0.533A1.647,1.647,0,0,0,59.9,4.57a1,1,0,0,0-.322-0.34A0.866,0.866,0,0,0,59.1,4.1a1.185,1.185,0,0,0-.826.328,1.744,1.744,0,0,0-.5.879,9.284,9.284,0,0,1-.24,1.547q-0.217.973-.586,2.238T56.1,11.848q-0.481,1.488-1.008,3.105Zm13.512,1.149a4.173,4.173,0,0,0,.217,1.383,2.816,2.816,0,0,0,.656,1.066,2.917,2.917,0,0,0,1.1.686,4.592,4.592,0,0,0,1.564.24,5.489,5.489,0,0,0,1.717-.252,5.088,5.088,0,0,0,1.4-.709A10.82,10.82,0,0,0,76.307,19a10.477,10.477,0,0,0,1.307-1.752,8.665,8.665,0,0,0,.832-1.875,6.452,6.452,0,0,0,.293-1.887,4.741,4.741,0,0,0-.17-1.307,3.609,3.609,0,0,0-.187-0.521q-0.112-.246-0.24-0.5A3.553,3.553,0,0,0,77.1,9.9a2.523,2.523,0,0,0-1.541-.463,1.6,1.6,0,0,0-1.231.492,2.871,2.871,0,0,0-.75.147,2.942,2.942,0,0,0-.539.229,12.173,12.173,0,0,0-1.94,1.465,11.471,11.471,0,0,0-1.435,1.606,9.541,9.541,0,0,0-.967,1.623,8.548,8.548,0,0,0-.545,1.518,6.541,6.541,0,0,0-.211,1.582h0Zm2.443-2.2a9.185,9.185,0,0,1,.48-0.861,8.355,8.355,0,0,1,.621-0.861,8.716,8.716,0,0,1,.727-0.785A6.02,6.02,0,0,1,73,12.75a3.24,3.24,0,0,1,.785-0.4,8.117,8.117,0,0,0,.949-0.141,2.847,2.847,0,0,0,.574-0.182,0.937,0.937,0,0,0,.316-0.223,1.851,1.851,0,0,0,.2-0.287q0.082,0.211.188,0.428t0.211,0.416q0.176,0.328.287,0.592a1.448,1.448,0,0,1,.111.568,3.278,3.278,0,0,1-.076.668q-0.076.363-.182,0.773a6.691,6.691,0,0,1-.568,1.436,7.28,7.28,0,0,1-1,1.459,5.559,5.559,0,0,1-1.365,1.131,3.215,3.215,0,0,1-1.658.451,2.178,2.178,0,0,1-.814-0.135,1.518,1.518,0,0,1-.557-0.375,1.429,1.429,0,0,1-.322-0.574,2.507,2.507,0,0,1-.1-0.721A3.814,3.814,0,0,1,70,17.174a3.876,3.876,0,0,1,.1-0.51A3.725,3.725,0,0,1,70.389,15.891ZM83.543,26.045a6.176,6.176,0,0,0,1.723-1A7.107,7.107,0,0,0,86.6,23.59a11.571,11.571,0,0,0,1-1.77A15.416,15.416,0,0,0,88.33,19.9q0.3-.984.5-1.91,0.117-.527.246-1.189t0.258-1.348q0.129-.686.252-1.359t0.211-1.219q0.088-.545.141-0.914a4.648,4.648,0,0,0,.053-0.463,0.784,0.784,0,0,0-.029-0.193,0.809,0.809,0,0,0-.076-0.193,2.242,2.242,0,0,0-.469-0.568,1.887,1.887,0,0,0-.557-0.328,2.577,2.577,0,0,0-.633-0.146,6.674,6.674,0,0,0-.7-0.035,4.763,4.763,0,0,0-1.641.281,5.359,5.359,0,0,0-1.547.914,13.649,13.649,0,0,0-1.2,1.1A11.823,11.823,0,0,0,82.09,13.57a9.611,9.611,0,0,0-.844,1.383,7.061,7.061,0,0,0-.551,1.5q-0.059.258-.129,0.586a2.918,2.918,0,0,0-.07.609,1.667,1.667,0,0,0,.234.85,2.887,2.887,0,0,0,.574.709,3.178,3.178,0,0,0,.721.492,1.577,1.577,0,0,0,.685.188,2.967,2.967,0,0,0,1.037-.193,6.029,6.029,0,0,0,1.025-.5,9,9,0,0,0,.984-0.691q0.48-.387.926-0.773-0.082.3-.135,0.545t-0.123.463q-0.176.656-.369,1.289a9,9,0,0,1-.48,1.236,6.913,6.913,0,0,1-1.717,2.256,1.892,1.892,0,0,1-.51.217q-0.311.088-.662,0.158a8.866,8.866,0,0,0-.891.229,1.65,1.65,0,0,0-.539.275,1.075,1.075,0,0,0-.3.4,3.853,3.853,0,0,0-.2.627,1.112,1.112,0,0,0-.035.27,0.689,0.689,0,0,0,.07.322,0.763,0.763,0,0,0,.17.223,0.682,0.682,0,0,0,.428.17A5.974,5.974,0,0,0,83.543,26.045ZM82.881,15.8q0.2-.392.451-0.779a5.37,5.37,0,0,1,.463-0.627q0.3-.357.662-0.738t0.774-.75a9.941,9.941,0,0,1,.814-0.662,5.588,5.588,0,0,1,.768-0.475,1.476,1.476,0,0,1,.644-0.182h0.106a1.987,1.987,0,0,0,.141.475,0.839,0.839,0,0,1,.082.369,2.738,2.738,0,0,1-.187.674q-0.153.381-.346,0.762t-0.387.709q-0.193.328-.311,0.516a5.729,5.729,0,0,1-.732.937,9.909,9.909,0,0,1-.984.914,6.466,6.466,0,0,1-1.043.7,2.011,2.011,0,0,1-.908.275,0.346,0.346,0,0,1-.34-0.187,0.984,0.984,0,0,1-.094-0.445A1.458,1.458,0,0,1,82.482,17q0.029-.146.064-0.287A4.112,4.112,0,0,1,82.881,15.8Zm9.111,2.291a4.17,4.17,0,0,0,.217,1.383,2.817,2.817,0,0,0,.656,1.066,2.917,2.917,0,0,0,1.1.686,4.592,4.592,0,0,0,1.564.24,5.488,5.488,0,0,0,1.717-.252,5.086,5.086,0,0,0,1.4-.709A10.846,10.846,0,0,0,100.354,19a10.478,10.478,0,0,0,1.306-1.752,8.655,8.655,0,0,0,.832-1.875,6.458,6.458,0,0,0,.293-1.887,4.95,4.95,0,0,0-.047-0.715,4.85,4.85,0,0,0-.123-0.592,3.631,3.631,0,0,0-.187-0.521q-0.113-.246-0.24-0.5A3.559,3.559,0,0,0,101.15,9.9a2.521,2.521,0,0,0-1.541-.463,1.6,1.6,0,0,0-1.23.492,2.871,2.871,0,0,0-.75.147,2.944,2.944,0,0,0-.539.229,12.177,12.177,0,0,0-1.939,1.465,11.472,11.472,0,0,0-1.436,1.606,9.547,9.547,0,0,0-.967,1.623,8.555,8.555,0,0,0-.545,1.518,6.541,6.541,0,0,0-.211,1.582h0Zm2.443-2.2a9.187,9.187,0,0,1,.48-0.861,8.355,8.355,0,0,1,.621-0.861,8.716,8.716,0,0,1,.727-0.785,6.02,6.02,0,0,1,.779-0.633,3.24,3.24,0,0,1,.785-0.4,8.112,8.112,0,0,0,.949-0.141,2.848,2.848,0,0,0,.574-0.182,0.937,0.937,0,0,0,.316-0.223,1.851,1.851,0,0,0,.2-0.287q0.082,0.211.188,0.428t0.211,0.416c0.117,0.219.212,0.416,0.287,0.592a1.45,1.45,0,0,1,.111.568,3.256,3.256,0,0,1-.076.668c-0.051.242-.111,0.5-0.182,0.773a6.684,6.684,0,0,1-.568,1.436,7.276,7.276,0,0,1-1,1.459,5.556,5.556,0,0,1-1.365,1.131,3.215,3.215,0,0,1-1.658.451A2.179,2.179,0,0,1,95,19.307a1.518,1.518,0,0,1-.557-0.375,1.431,1.431,0,0,1-.322-0.574,2.511,2.511,0,0,1-.1-0.721,3.814,3.814,0,0,1,.029-0.463,3.892,3.892,0,0,1,.1-0.51A3.737,3.737,0,0,1,94.436,15.891Z"/>
</svg>